# xmcd
#
# Track frame offsets:
#	150
#	13432
#	27025
#	41395
#	52320
#	67717
#	87717
#	101117
#	115272
#	137572
#	151640
#	166275
#	182057
#	203465
#	223410
#	255110
#
# Disc length: 3658 seconds
#
# Revision: 7
# Processed by: cddbd v1.5.2PL0 Copyright (c) Steve Scherf et al.
# Submitted via: audiograbber 1.83.01
#
DISCID=d60e4810
DTITLE=Harris, Emmylou And The Nash Ramblers - At The Ryman
DYEAR=1992
DGENRE=Country
TTITLE0=Guitar Town
TTITLE1=Half As Much
TTITLE2=Cattle Call
TTITLE3=Guess Things Happen That Way
TTITLE4=Hard Times
TTITLE5=Mansion On The Hill
TTITLE6=Scotland
TTITLE7=Montana Cowgirl
TTITLE8=Like Strangers
TTITLE9=Lodi
TTITLE10=Calling My Children Home
TTITLE11=If I Could Be There
TTITLE12=Walls Of Time
TTITLE13=Get Up John
TTITLE14=It's A Hard Life Wherever You Go - Abraham, Martin And John
TTITLE15=Smoke Along The Track
EXTD=
EXTT0=
EXTT1=
EXTT2=
EXTT3=
EXTT4=
EXTT5=
EXTT6=
EXTT7=
EXTT8=
EXTT9=
EXTT10=
EXTT11=
EXTT12=
EXTT13=
EXTT14=
EXTT15=
PLAYORDER=
